<?xml version="1.0" encoding="UTF-8" ?>
<!DOCTYPE svg PUBLIC "-//W3C//DTD SVG 1.1//EN" "http://www.w3.org/Graphics/SVG/1.1/DTD/svg11.dtd">
<svg width="36pt" height="32pt" viewBox="0 0 36 32" version="1.1" xmlns="http://www.w3.org/2000/svg">
<g id="#ffffffff">
</g>
<g id="#404041ff">
<path fill="#2a49c3" opacity="1.00" d=" M 7.29 12.29 C 10.20 9.58 12.71 6.37 15.94 4.04 C 20.05 2.23 22.76 6.44 25.28 8.90 C 27.37 11.36 25.79 14.52 23.95 16.58 C 22.98 16.05 22.12 15.20 21.38 14.00 C 21.83 13.52 22.73 12.54 23.18 12.05 C 21.94 9.91 19.75 8.26 17.96 6.53 C 15.04 9.33 12.22 12.23 9.36 15.09 C 10.70 16.63 12.21 18.06 13.77 19.40 C 13.79 20.59 12.40 21.93 11.25 21.99 C 8.75 19.44 4.58 16.24 7.29 12.29 Z" />
<path fill="#2a49c3" opacity="1.00" d=" M 14.18 15.57 C 14.37 14.37 15.54 13.04 16.77 13.01 C 18.50 15.25 21.53 16.78 21.62 19.93 C 21.17 23.70 17.38 25.54 15.18 28.25 C 13.40 30.46 9.95 32.92 7.32 30.58 C 5.08 28.36 1.88 26.44 1.58 22.99 C 1.86 21.08 2.97 19.49 4.35 18.21 C 5.13 19.14 5.82 20.14 6.64 21.03 C 5.77 21.73 3.92 23.29 5.66 24.25 C 7.15 25.63 8.49 27.15 9.99 28.51 C 12.93 25.70 15.77 22.80 18.63 19.91 C 17.28 18.35 15.76 16.91 14.18 15.57 Z" />
</g>
</svg>
